<svg width="48" height="49" viewBox="0 0 48 49" fill="none" xmlns="http://www.w3.org/2000/svg">
<rect y="0.71875" width="48" height="48" rx="8" fill="#55ACEE"/>
<path fill-rule="evenodd" clip-rule="evenodd" d="M20.7863 20.93H25.4287V23.2425C26.0975 21.9125 27.8125 20.7175 30.3888 20.7175C35.3275 20.7175 36.5 23.365 36.5 28.2225V37.2188H31.5V29.3288C31.5 26.5625 30.8313 25.0025 29.1287 25.0025C26.7675 25.0025 25.7863 26.6838 25.7863 29.3275V37.2188H20.7863V20.93ZM12.2125 37.0063H17.2125V20.7175H12.2125V37.0063ZM17.9288 15.4063C17.9289 15.8253 17.8458 16.2403 17.6842 16.627C17.5226 17.0137 17.2858 17.3644 16.9875 17.6588C16.383 18.2595 15.5648 18.5958 14.7125 18.5938C13.8617 18.5932 13.0454 18.2577 12.44 17.66C12.1428 17.3646 11.9067 17.0135 11.7454 16.6268C11.5841 16.24 11.5007 15.8253 11.5 15.4063C11.5 14.56 11.8375 13.75 12.4413 13.1525C13.0461 12.5539 13.8628 12.2184 14.7138 12.2188C15.5663 12.2188 16.3837 12.555 16.9875 13.1525C17.59 13.75 17.9288 14.56 17.9288 15.4063Z" fill="white"/>
</svg>
