<svg width="48" height="49" viewBox="0 0 48 49" fill="none" xmlns="http://www.w3.org/2000/svg">
<rect y="0.71875" width="48" height="48" rx="8" fill="white"/>
<path d="M39 15.6412C37.8766 16.1289 36.685 16.449 35.4649 16.5909C36.7358 15.8445 37.7116 14.6625 38.1711 13.2542C36.963 13.9567 35.6412 14.4517 34.2628 14.7177C33.14 13.5456 31.5405 12.8131 29.7702 12.8131C26.3711 12.8131 23.6152 15.5135 23.6152 18.8441C23.6152 19.3169 23.6696 19.7771 23.7745 20.2187C18.6593 19.9671 14.1241 17.566 11.0884 13.9171C10.5587 14.8079 10.2552 15.844 10.2552 16.9491C10.2552 19.0416 11.3419 20.8876 12.9933 21.9692C12.0159 21.9392 11.06 21.6805 10.2054 21.2147C10.205 21.24 10.205 21.2652 10.205 21.2906C10.205 24.2128 12.3266 26.6504 15.1421 27.2045C14.2358 27.446 13.2851 27.4814 12.3627 27.3078C13.1459 29.7039 15.4189 31.4476 18.1121 31.4964C16.0057 33.1139 13.3518 34.0781 10.4682 34.0781C9.97137 34.0781 9.48152 34.0496 9 33.9939C11.7238 35.7051 14.959 36.7036 18.4348 36.7036C29.7559 36.7036 35.9466 27.5134 35.9466 19.5436C35.9466 19.282 35.9407 19.0219 35.9288 18.7633C37.1337 17.9097 38.1737 16.8525 39 15.6412Z" fill="#55ACEE"/>
</svg>
