<svg width="89" height="93" viewBox="0 0 89 93" fill="none" xmlns="http://www.w3.org/2000/svg">
<rect x="0.0963936" y="0.436707" width="88.2098" height="88.2098" rx="24.4629" fill="#ECFDF5"/>
<g filter="url(#filter0_dd_2_249)">
<rect x="7.24854" y="7.58887" width="73.9055" height="73.9055" rx="24.4629" fill="#83CD29" shape-rendering="crispEdges"/>
<path d="M44.2013 69.5097C43.472 69.5099 42.7555 69.3328 42.1239 68.996L35.5132 65.381C34.5267 64.8709 35.0074 64.6908 35.3337 64.5855C36.383 64.2861 37.3876 63.8667 38.3243 63.3371C38.4027 63.3036 38.4891 63.2891 38.5752 63.2951C38.6614 63.301 38.7445 63.3271 38.8166 63.371L43.8962 66.1586C43.9908 66.2048 44.0962 66.2289 44.2032 66.2289C44.3102 66.2289 44.4156 66.2048 44.5102 66.1586L64.3189 55.5969C64.4116 55.5456 64.4883 55.4729 64.5414 55.386C64.5946 55.2991 64.6223 55.2009 64.622 55.1011V33.9743C64.6221 33.8729 64.5939 33.7732 64.5401 33.6848C64.4864 33.5964 64.4088 33.5222 64.3151 33.4696L44.5063 22.9168C44.4129 22.8682 44.3075 22.8427 44.2003 22.8427C44.0931 22.8427 43.9877 22.8682 43.8943 22.9168L24.0972 33.4731C24.0027 33.5247 23.9243 33.598 23.8695 33.6858C23.8147 33.7736 23.7854 33.8729 23.7844 33.9743V55.0922C23.7847 55.1918 23.8136 55.2895 23.8682 55.3754C23.9228 55.4613 24.0012 55.5322 24.0952 55.5809L29.5281 58.4772C32.4724 59.8362 34.2757 58.2347 34.2757 56.626V35.7756C34.2757 35.6337 34.3367 35.4976 34.4453 35.3972C34.5539 35.2969 34.7013 35.2405 34.8549 35.2405H37.3648C37.5184 35.2405 37.6657 35.2969 37.7743 35.3972C37.8829 35.4976 37.944 35.6337 37.944 35.7756V56.6278C37.944 60.2571 35.8048 62.3348 32.0786 62.3348C30.471 62.3607 28.8887 61.9636 27.5164 61.1898L22.3094 58.4308C21.6772 58.0908 21.1527 57.6035 20.7882 57.0177C20.4237 56.4318 20.2319 55.7679 20.2319 55.0922V33.9743C20.2301 33.2975 20.4211 32.6322 20.7857 32.0452C21.1504 31.4582 21.6759 30.9702 22.3094 30.6303L42.12 20.0651C42.7582 19.7426 43.4739 19.5735 44.2013 19.5735C44.9287 19.5735 45.6444 19.7426 46.2825 20.0651L66.0913 30.6303C66.7233 30.9697 67.248 31.4562 67.6128 32.0415C67.9777 32.6267 68.17 33.29 68.1706 33.9654V55.0922C68.1695 55.7679 67.977 56.4316 67.6123 57.0173C67.2475 57.603 66.7231 58.0903 66.0913 58.4308L46.2825 68.996C45.6497 69.3333 44.9319 69.5105 44.2013 69.5097Z" fill="white"/>
<path d="M40.4434 48.0256C40.4434 47.8837 40.5044 47.7476 40.613 47.6473C40.7216 47.5469 40.869 47.4906 41.0226 47.4906H43.5846C43.7215 47.491 43.8538 47.5362 43.9581 47.6181C44.0623 47.7001 44.1318 47.8135 44.1541 47.9382C44.5403 50.3477 45.6987 51.5622 50.9366 51.5622C55.1088 51.5622 56.8869 50.6901 56.8869 48.6445C56.8869 47.4656 56.383 46.5899 49.8979 46.0032C44.4766 45.5074 41.1249 44.3981 41.1249 40.396C41.1249 36.7042 44.4939 34.5016 50.1412 34.5016C56.4873 34.5016 59.6285 36.5366 60.0262 40.9025C60.0323 40.9754 60.0221 41.0486 59.9964 41.1178C59.9706 41.1869 59.9298 41.2504 59.8764 41.3044C59.823 41.3583 59.7583 41.4016 59.6861 41.4316C59.6139 41.4616 59.5358 41.4775 59.4567 41.4785H56.8773C56.7479 41.4769 56.6228 41.4352 56.522 41.3602C56.4213 41.2852 56.3506 41.1812 56.3213 41.0648C55.7054 38.5305 54.1975 37.7208 50.1431 37.7208C45.5867 37.7208 45.0577 39.1868 45.0577 40.2854C45.0577 41.6159 45.6832 42.0047 51.8344 42.7555C57.9218 43.4992 60.8139 44.5514 60.8139 48.5036C60.8139 52.4914 57.2152 54.7742 50.9385 54.7742C42.2601 54.7849 40.4434 51.1092 40.4434 48.0256Z" fill="white"/>
</g>
<defs>
<filter id="filter0_dd_2_249" x="1.81234" y="7.58887" width="84.7779" height="84.7779" filterUnits="userSpaceOnUse" color-interpolation-filters="sRGB">
<feFlood flood-opacity="0" result="BackgroundImageFix"/>
<feColorMatrix in="SourceAlpha" type="matrix" values="0 0 0 0 0 0 0 0 0 0 0 0 0 0 0 0 0 0 127 0" result="hardAlpha"/>
<feOffset dy="5.4362"/>
<feGaussianBlur stdDeviation="2.7181"/>
<feComposite in2="hardAlpha" operator="out"/>
<feColorMatrix type="matrix" values="0 0 0 0 0.513726 0 0 0 0 0.803922 0 0 0 0 0.160784 0 0 0 0.2 0"/>
<feBlend mode="normal" in2="BackgroundImageFix" result="effect1_dropShadow_2_249"/>
<feColorMatrix in="SourceAlpha" type="matrix" values="0 0 0 0 0 0 0 0 0 0 0 0 0 0 0 0 0 0 127 0" result="hardAlpha"/>
<feOffset dy="5.4362"/>
<feGaussianBlur stdDeviation="2.7181"/>
<feComposite in2="hardAlpha" operator="out"/>
<feColorMatrix type="matrix" values="0 0 0 0 0.513726 0 0 0 0 0.803922 0 0 0 0 0.160784 0 0 0 0.2 0"/>
<feBlend mode="normal" in2="effect1_dropShadow_2_249" result="effect2_dropShadow_2_249"/>
<feBlend mode="normal" in="SourceGraphic" in2="effect2_dropShadow_2_249" result="shape"/>
</filter>
</defs>
</svg>
