<svg width="89" height="93" viewBox="0 0 89 93" fill="none" xmlns="http://www.w3.org/2000/svg">
<rect y="0.436707" width="88.2098" height="88.2098" rx="24.4629" fill="#F0F9FF"/>
<g filter="url(#filter0_dd_2_242)">
<rect x="7.15215" y="7.58887" width="73.9055" height="73.9055" rx="24.4629" fill="#38BDF8" shape-rendering="crispEdges"/>
<path d="M69.073 44.5468C69.073 41.2036 64.9303 38.0353 58.5788 36.0705C60.0446 29.5282 59.3931 24.3232 56.5228 22.6567C55.8612 22.2658 55.0876 22.0807 54.2428 22.0807V24.3746C54.711 24.3746 55.0876 24.4672 55.4031 24.642C56.7874 25.4444 57.3879 28.4995 56.9197 32.4291C56.8078 33.396 56.6245 34.4144 56.4006 35.4533C54.4056 34.9596 52.2274 34.579 49.9372 34.3321C48.5631 32.4291 47.1381 30.7009 45.7029 29.1888C49.0211 26.0719 52.1358 24.3643 54.2529 24.3643V22.0704C51.4538 22.0704 47.7895 24.0866 44.0845 27.584C40.3795 24.1071 36.7152 22.1115 33.9161 22.1115V24.4055C36.0231 24.4055 39.1479 26.1028 42.4661 29.199C41.0411 30.7112 39.6161 32.4291 38.2624 34.3321C35.962 34.579 33.7838 34.9596 31.7888 35.4636C31.5547 34.435 31.3817 33.4372 31.2595 32.4805C30.7811 28.551 31.3715 25.4958 32.7456 24.6832C33.0509 24.498 33.4479 24.4157 33.9161 24.4157V22.1218C33.0611 22.1218 32.2876 22.307 31.6158 22.6979C28.7556 24.3643 28.1143 29.5591 29.5902 36.0808C23.2592 38.0559 19.1368 41.2139 19.1368 44.5468C19.1368 47.8899 23.2795 51.0582 29.6309 53.023C28.1652 59.5653 28.8167 64.7704 31.687 66.4368C32.3486 66.8277 33.1222 67.0129 33.9772 67.0129C36.7763 67.0129 40.4406 64.9967 44.1456 61.4992C47.8506 64.9761 51.5149 66.9717 54.314 66.9717C55.169 66.9717 55.9426 66.7866 56.6144 66.3957C59.4746 64.7292 60.1158 59.5345 58.6399 53.0127C64.9506 51.048 69.073 47.8797 69.073 44.5468ZM55.8204 37.6856C55.4438 39.0125 54.9756 40.3807 54.4463 41.7488C54.029 40.9259 53.5913 40.1029 53.1129 39.28C52.6447 38.4571 52.146 37.6547 51.6472 36.8729C53.0926 37.0889 54.487 37.3564 55.8204 37.6856ZM51.1586 48.6409C50.3647 50.0296 49.5504 51.3463 48.7056 52.5704C47.189 52.7041 45.652 52.7761 44.1049 52.7761C42.5679 52.7761 41.031 52.7041 39.5245 52.5807C38.6797 51.3566 37.8552 50.0501 37.0613 48.6717C36.2877 47.3242 35.5854 45.956 34.9442 44.5776C35.5752 43.1992 36.2877 41.8208 37.0511 40.4732C37.8451 39.0845 38.6593 37.7678 39.5042 36.5437C41.0208 36.41 42.5577 36.338 44.1049 36.338C45.6419 36.338 47.1788 36.41 48.6853 36.5334C49.5301 37.7576 50.3545 39.064 51.1485 40.4424C51.922 41.7899 52.6244 43.1581 53.2656 44.5365C52.6244 45.9149 51.922 47.2933 51.1586 48.6409ZM54.4463 47.3036C54.996 48.682 55.4642 50.0604 55.851 51.3977C54.5176 51.7269 53.1129 52.0046 51.6574 52.2206C52.1562 51.4286 52.6549 50.6159 53.1231 49.7827C53.5913 48.9598 54.029 48.1265 54.4463 47.3036ZM44.1252 58.2795C43.1786 57.292 42.232 56.1913 41.2956 54.9878C42.2117 55.0289 43.1481 55.0598 44.0947 55.0598C45.0515 55.0598 45.9981 55.0392 46.9244 54.9878C46.0083 56.1913 45.0617 57.292 44.1252 58.2795ZM36.5524 52.2206C35.107 52.0046 33.7126 51.7372 32.3792 51.408C32.7558 50.081 33.224 48.7129 33.7533 47.3448C34.1706 48.1677 34.6083 48.9906 35.0867 49.8136C35.5651 50.6365 36.0536 51.4389 36.5524 52.2206ZM44.0744 30.8141C45.021 31.8016 45.9676 32.9022 46.904 34.1058C45.9879 34.0646 45.0515 34.0338 44.1049 34.0338C43.1481 34.0338 42.2015 34.0544 41.2752 34.1058C42.1913 32.9022 43.1379 31.8016 44.0744 30.8141ZM36.5422 36.8729C36.0435 37.665 35.5447 38.4776 35.0765 39.3109C34.6083 40.1338 34.1706 40.9567 33.7533 41.7797C33.2036 40.4012 32.7354 39.0228 32.3486 37.6856C33.682 37.3667 35.0867 37.0889 36.5422 36.8729ZM27.3306 49.7518C23.7274 48.1985 21.3965 46.1618 21.3965 44.5468C21.3965 42.9318 23.7274 40.8847 27.3306 39.3417C28.2059 38.9611 29.1627 38.6216 30.1501 38.3028C30.7302 40.3189 31.4936 42.4174 32.4402 44.5673C31.5038 46.707 30.7506 48.7952 30.1806 50.8011C29.1729 50.4822 28.2161 50.1324 27.3306 49.7518ZM32.8067 64.4515C31.4224 63.6491 30.8218 60.594 31.2901 56.6645C31.402 55.6975 31.5852 54.6792 31.8092 53.6402C33.8042 54.134 35.9824 54.5146 38.2726 54.7614C39.6467 56.6645 41.0717 58.3926 42.5069 59.9048C39.1886 63.0217 36.074 64.7292 33.9568 64.7292C33.4988 64.719 33.112 64.6264 32.8067 64.4515ZM56.9503 56.6131C57.4287 60.5426 56.8383 63.5977 55.4642 64.4104C55.1588 64.5955 54.7619 64.6778 54.2937 64.6778C52.1867 64.6778 49.0619 62.9805 45.7436 59.8842C47.1686 58.3721 48.5936 56.6542 49.9474 54.7512C52.2478 54.5043 54.426 54.1237 56.421 53.6196C56.6551 54.6586 56.8383 55.6564 56.9503 56.6131ZM60.869 49.7518C59.9937 50.1324 59.0369 50.4719 58.0495 50.7908C57.4694 48.7746 56.706 46.6761 55.7594 44.5262C56.6958 42.3866 57.449 40.2984 58.019 38.2925C59.0267 38.6114 59.9835 38.9611 60.8792 39.3417C64.4824 40.895 66.8133 42.9318 66.8133 44.5468C66.8031 46.1618 64.4722 48.2088 60.869 49.7518Z" fill="white"/>
<path d="M44.0943 49.2475C46.6633 49.2475 48.7459 47.1428 48.7459 44.5465C48.7459 41.9502 46.6633 39.8455 44.0943 39.8455C41.5253 39.8455 39.4427 41.9502 39.4427 44.5465C39.4427 47.1428 41.5253 49.2475 44.0943 49.2475Z" fill="white"/>
</g>
<defs>
<filter id="filter0_dd_2_242" x="1.71594" y="7.58887" width="84.7779" height="84.7779" filterUnits="userSpaceOnUse" color-interpolation-filters="sRGB">
<feFlood flood-opacity="0" result="BackgroundImageFix"/>
<feColorMatrix in="SourceAlpha" type="matrix" values="0 0 0 0 0 0 0 0 0 0 0 0 0 0 0 0 0 0 127 0" result="hardAlpha"/>
<feOffset dy="5.4362"/>
<feGaussianBlur stdDeviation="2.7181"/>
<feComposite in2="hardAlpha" operator="out"/>
<feColorMatrix type="matrix" values="0 0 0 0 0.027451 0 0 0 0 0.494118 0 0 0 0 0.854902 0 0 0 0.2 0"/>
<feBlend mode="normal" in2="BackgroundImageFix" result="effect1_dropShadow_2_242"/>
<feColorMatrix in="SourceAlpha" type="matrix" values="0 0 0 0 0 0 0 0 0 0 0 0 0 0 0 0 0 0 127 0" result="hardAlpha"/>
<feOffset dy="5.4362"/>
<feGaussianBlur stdDeviation="2.7181"/>
<feComposite in2="hardAlpha" operator="out"/>
<feColorMatrix type="matrix" values="0 0 0 0 0.0313726 0 0 0 0 0.639216 0 0 0 0 0.901961 0 0 0 0.1 0"/>
<feBlend mode="normal" in2="effect1_dropShadow_2_242" result="effect2_dropShadow_2_242"/>
<feBlend mode="normal" in="SourceGraphic" in2="effect2_dropShadow_2_242" result="shape"/>
</filter>
</defs>
</svg>
