<svg width="89" height="93" viewBox="0 0 89 93" fill="none" xmlns="http://www.w3.org/2000/svg">
<rect x="0.192783" y="0.436707" width="88.2098" height="88.2098" rx="24.4629" fill="#F0F9FF"/>
<g filter="url(#filter0_dd_2_256)">
<rect x="7.34492" y="7.58887" width="73.9055" height="73.9055" rx="24.4629" fill="#38BDF8" shape-rendering="crispEdges"/>
<path d="M65.5036 18.8793C63.2106 16.8354 60.4375 17.6574 57.697 20.0883C57.2751 20.4675 56.8695 20.8645 56.4813 21.2782C51.796 26.2485 47.4473 35.4516 46.0967 42.4821C46.6224 43.5499 47.0341 44.9118 47.3057 45.9517C47.4411 46.4675 47.5628 46.9882 47.6702 47.5123C47.6702 47.5123 47.6282 47.3544 47.4557 46.8549L47.3449 46.5312C47.3221 46.4714 47.2977 46.4122 47.2715 46.3537C46.9657 45.6425 46.1213 44.1419 45.7484 43.4895C45.4529 44.3548 45.174 45.2257 44.9118 46.1017C45.9875 48.0656 46.6404 51.4344 46.6404 51.4344C46.6404 51.4344 46.5849 51.2148 46.3146 50.4533C46.0771 49.7796 44.8826 47.6881 44.5993 47.1999C44.1161 48.9872 43.9244 50.1912 44.0965 50.4841C44.4352 51.0519 44.7539 52.0352 45.0339 53.1188C45.6705 55.5635 46.1113 58.5415 46.1113 58.5415L46.1504 59.0381C46.0658 61.0737 46.1079 63.1131 46.2741 65.1441C46.4858 67.6909 46.8812 69.8765 47.3857 71.0484L47.729 70.861C46.987 68.555 46.6858 65.5316 46.8191 62.0474C47.0178 56.7188 48.2448 50.2924 50.5087 43.5953C54.3378 33.4877 59.6485 25.3752 64.5079 21.5003C60.0793 25.5002 54.0829 38.4546 52.2876 43.2491C50.2779 48.618 48.8555 53.655 47.9973 58.4828C49.4784 53.957 54.2645 52.0139 54.2645 52.0139C54.2645 52.0139 56.613 49.1167 59.3568 44.9801C57.7133 45.3542 55.0132 45.9971 54.1083 46.3762C52.7751 46.9345 52.4155 47.1249 52.4155 47.1249C52.4155 47.1249 56.7363 44.4952 60.4438 43.3036C65.5407 35.2754 71.0951 23.8704 65.5036 18.8793ZM24.2358 20.0875C21.9869 20.0958 20.1654 21.9165 20.1592 24.1658V61.0675C20.1658 63.3164 21.9881 65.1358 24.2358 65.1441H45.1614C45.0049 63.143 44.9664 61.1345 45.046 59.1289C45.033 58.9906 45.0214 58.8148 45.0101 58.6844C44.7396 56.908 44.3888 55.1447 43.959 53.4C43.6903 52.3555 43.3486 51.4048 43.1403 51.0519C42.8816 50.6141 42.922 50.3633 42.9237 50.0916C42.9237 49.825 42.9579 49.5479 43.007 49.2338C43.1387 48.4514 43.3112 47.6765 43.5261 46.9116L44.0077 46.8499C43.9702 46.7716 43.9769 46.7049 43.9394 46.6349L43.8482 45.7888C44.1148 44.8985 44.3964 44.0131 44.6981 43.1345L45.1422 43.092C45.1243 43.0578 45.1193 43.0074 45.1014 42.9753L45.0055 42.2733C46.4066 34.9842 50.7549 25.734 55.6714 20.5179C55.8181 20.3637 55.9676 20.2333 56.111 20.0867L24.2358 20.0875Z" fill="white"/>
</g>
<defs>
<filter id="filter0_dd_2_256" x="1.90872" y="7.58887" width="84.7779" height="84.7779" filterUnits="userSpaceOnUse" color-interpolation-filters="sRGB">
<feFlood flood-opacity="0" result="BackgroundImageFix"/>
<feColorMatrix in="SourceAlpha" type="matrix" values="0 0 0 0 0 0 0 0 0 0 0 0 0 0 0 0 0 0 127 0" result="hardAlpha"/>
<feOffset dy="5.4362"/>
<feGaussianBlur stdDeviation="2.7181"/>
<feComposite in2="hardAlpha" operator="out"/>
<feColorMatrix type="matrix" values="0 0 0 0 0.027451 0 0 0 0 0.494118 0 0 0 0 0.854902 0 0 0 0.2 0"/>
<feBlend mode="normal" in2="BackgroundImageFix" result="effect1_dropShadow_2_256"/>
<feColorMatrix in="SourceAlpha" type="matrix" values="0 0 0 0 0 0 0 0 0 0 0 0 0 0 0 0 0 0 127 0" result="hardAlpha"/>
<feOffset dy="5.4362"/>
<feGaussianBlur stdDeviation="2.7181"/>
<feComposite in2="hardAlpha" operator="out"/>
<feColorMatrix type="matrix" values="0 0 0 0 0.0313726 0 0 0 0 0.639216 0 0 0 0 0.901961 0 0 0 0.1 0"/>
<feBlend mode="normal" in2="effect1_dropShadow_2_256" result="effect2_dropShadow_2_256"/>
<feBlend mode="normal" in="SourceGraphic" in2="effect2_dropShadow_2_256" result="shape"/>
</filter>
</defs>
</svg>
